<svg xmlns="http://www.w3.org/2000/svg" viewBox="0 0 500 500" fill="none">
  <!-- Background bounding square -->
  <rect width="500" height="500" rx="40" fill="#E84C3D"/>
  <!-- Logo paths in white -->
  <g fill="#ffffff">
    <path d="m303.68,360.9c3.68,2.07,6.43,3.91,9.4,5.24,14.44,6.45,29.38,7.43,44.35,2.52,18.06-5.93,26.93-28.13,18.56-45.28-3.1-6.35-8.53-9.8-15.1-11.22-4.51-.97-9.24-1.23-13.88-1.32-16.99-.32-34.03.24-50.95-.92-7.54-.52-15.11-3.73-22.19-6.8-8.21-3.57-12.05-10.67-12.07-19.68-.03-13.66-.06-27.33-.06-40.99,0-31.16,0-62.32.02-93.48,0-1.63.13-3.25.22-5.14h24.62c0,2.29,0,4.25,0,6.2.05,35.83.1,71.65.15,107.48,0,.67,0,1.33,0,2,.13,15.91,4.92,21,20.86,21.29,14.49.27,29-.04,43.49.19,5.64.09,11.38.4,16.87,1.55,22.38,4.69,35.7,19.51,39.53,43.36,5.09,31.7-10.14,59.22-39.34,70.06-16.35,6.07-33.27,6.24-50.25,2.6q-14.19-3.04-14.23-17.6c-.02-6.42,0-12.85,0-20.05Z"/>
    <path d="m202.66,235.08c-10.09-10.4-21.26-14.4-34.03-13.47-18.09,1.33-30.45,11.04-37.08,27.55-2.35,5.87-3.45,12.58-3.59,18.93-.43,19.81-.21,39.64-.1,59.46.1,17.82,6.49,32.54,23.13,40.56,17.15,8.26,33.36,5.12,47.99-6.81.64-.52,1.33-.97,2.02-1.43.1-.07.31.03,1.15.15,0,10.61.14,21.34-.18,32.06-.04,1.31-2.41,2.92-4.04,3.75-29.87,15.35-69.3,4.46-87.26-23.99-8.48-13.44-12.84-28.03-12.81-43.96.04-20.15-.54-40.32.08-60.46.93-30.55,13.31-54.99,41.56-68.88,19.4-9.54,39.55-9.26,59.36-.01,2.76,1.29,3.93,2.97,3.86,6.12-.19,9.61-.07,19.22-.07,30.43Z"/>
    <path d="m243.58,401.05h-24.76c0-2.82,0-5.43,0-8.03-.03-24.83-.15-49.66,0-74.49.03-4.18-1.24-5.41-5.34-5.36-16,.2-32,.1-47.99.11-1.98,0-3.95,0-6.34,0v-28.77h84.43v116.55Z"/>
    <path d="m402.05,230.6c-9.39,3.58-18.21,6.94-27.39,10.44-7.43-12.92-18.92-19-33.29-19.8-13.88-.77-26.99,1.21-37.31,12.8-.3-1.36-.65-2.22-.66-3.08-.05-9.16-.17-18.33.05-27.48.04-1.6,1.17-3.93,2.49-4.64,28.18-15.12,74.03-3.47,91.44,23.14,1.7,2.6,2.98,5.47,4.67,8.63Z"/>
    <path d="m219.33,143.68h24.24v103.52h-24.24v-103.52Z"/>
    <path d="m202.65,151.34v16.09c-14.19-.05-28.04-.4-38.45-12.17-5.62-6.35-11.19-12.76-16.81-19.11-4.41-4.98-9.99-7.16-16.55-6.31-9.23,1.2-18.44,2.6-27.65,3.97-5.66.84-6.35.12-7.89-7.18-.99-4.67,1.14-6.26,5.38-6.86,10.37-1.47,20.68-3.35,31.06-4.79,11.05-1.53,20.3,2.08,27.72,10.43,3.21,3.61,6.67,7,9.71,10.74,7.73,9.51,17.57,14.5,29.85,14.65,1.12.01,2.23.32,3.63.53Z"/>
    <path d="m303.71,167.62v-16.23c.96-.23,1.75-.58,2.52-.57,12.66.24,22.31-5.27,30.02-15.07,3.59-4.56,7.73-8.71,11.81-12.86,5.41-5.51,12.23-8.59,19.82-7.83,12.23,1.22,24.37,3.28,36.51,5.27,1.14.19,2.3,2.31,2.79,3.75.38,1.12-.14,2.62-.46,3.91-1.64,6.61-1.84,6.6-8.46,5.55-8.21-1.31-16.44-2.48-24.68-3.5-6.26-.77-11.44,1.68-15.62,6.23-4.61,5.02-9.57,9.83-13.52,15.35-10.11,14.15-24.62,16.15-40.74,16Z"/>
    <path d="m10.35,144.28c-.19-4.77,1.32-7.29,4.96-8.16,20.72-4.95,41.43-9.92,62.19-14.66,1.06-.24,3.37,1.26,3.75,2.39,1.46,4.41,2.3,9.02,3.51,13.52.76,2.82-.5,3.89-3.05,4.48-10.05,2.32-20.07,4.77-30.12,7.12-9.89,2.31-19.79,4.53-29.69,6.81-6.52,1.5-8.26.57-10.21-5.81-.68-2.22-1.08-4.52-1.35-5.69Z"/>
    <path d="m262.35,340.14h23.8v60.83h-23.8v-60.83Z"/>
    <path d="m491.41,144.01c-.26,1.64-.4,3.31-.78,4.93-1.76,7.4-3.88,8.66-11.2,6.88-19.09-4.63-38.15-9.34-57.29-13.77-3.71-.86-4.65-2.29-3.56-5.81,1.47-4.73,1.21-11.66,4.32-13.75,2.93-1.97,9.29.93,14.08,1.99,15.92,3.53,31.79,7.32,47.73,10.76,5.07,1.09,7.11,3.8,6.71,8.78Z"/>
    <path d="m87.72,115c6.29.03,7.56,1.74,5.87,6.09-1.96,5.02.89,12.88,5.5,15.72.75.46,1.61,2.29,1.34,2.63-1.92,2.43-3.73,5.36-6.33,6.72-3.13,1.64-4.86-1.44-5.56-4.01-2-7.34-4-14.7-5.32-22.18-.67-3.77,2.52-4.93,4.5-4.97Z"/>
    <path d="m402.18,136.77c5.17-1.14,8.69-9.18,7.27-15.36-.36-1.57.15-4.79.69-4.89,2.63-.48,5.51-.55,8.06.13.81.21,1.49,3.31,1.19,4.89-1.14,6.04-2.53,12.06-4.18,17.98-.89,3.2-1.38,7.29-6.5,6.57-4.27-.6-6.49-3.6-6.53-9.32Z"/>
  </g>
</svg>
